<?xml version="1.0" standalone="no"?><!DOCTYPE svg PUBLIC "-//W3C//DTD SVG 1.1//EN" "http://www.w3.org/Graphics/SVG/1.1/DTD/svg11.dtd"><svg t="1630061137565" class="icon" viewBox="0 0 1536 1024" version="1.1" xmlns="http://www.w3.org/2000/svg" p-id="2268" xmlns:xlink="http://www.w3.org/1999/xlink" width="300" height="200"><defs><style type="text/css"></style></defs><path d="M0 0h1536v1024H0z" fill="#E94B35" p-id="2269"></path><path d="M768 591.36l104.96 71.552-37.024-119.936 101.888-75.712-127.84-2.56-41.984-118.4-41.984 118.4-127.84 2.56 101.888 75.712-37.024 119.936L768 591.36z m0 61.696l-197.504 134.72 69.696-225.728-191.744-142.496 240.544-4.8L768 192l79.008 222.752 240.544 4.8-191.744 142.496 69.696 225.728L768 653.056z" fill="#1AAF5D" p-id="2270"></path><path d="M835.04 542.688l-25.6-77.248h-82.88l-25.6 77.248L768 590.432l67.04-47.744zM768 653.088l-127.808-91.04 48.8-147.296h158.016l48.8 147.296L768 653.056z" fill="#1AAF5D" p-id="2271"></path></svg>